<?xml version="1.0" encoding="UTF-8" standalone="no"?>
<!-- Created with Inkscape (http://www.inkscape.org/) -->

<svg
   width="58.983883mm"
   height="59.046024mm"
   viewBox="0 0 58.983883 59.046024"
   version="1.1"
   id="svg1"
   xml:space="preserve"
   xmlns:inkscape="http://www.inkscape.org/namespaces/inkscape"
   xmlns:sodipodi="http://sodipodi.sourceforge.net/DTD/sodipodi-0.dtd"
   xmlns="http://www.w3.org/2000/svg"
   xmlns:svg="http://www.w3.org/2000/svg"><sodipodi:namedview
     id="namedview1"
     pagecolor="#ffffff"
     bordercolor="#000000"
     borderopacity="0.25"
     inkscape:showpageshadow="2"
     inkscape:pageopacity="0.0"
     inkscape:pagecheckerboard="0"
     inkscape:deskcolor="#d1d1d1"
     inkscape:document-units="mm" /><defs
     id="defs1" /><g
     inkscape:label="Layer 1"
     inkscape:groupmode="layer"
     id="layer1"
     transform="translate(-91.191897,195.02456)"><path
       style="fill:#0a00ff;fill-opacity:1"
       d="m 92.333878,-136.1566 c -0.439779,-0.18491 -0.876949,-0.53778 -0.971488,-0.78414 -0.415742,-1.08341 -0.438386,-0.99317 4.369205,-17.41173 l 0.835067,-2.85186 12.933468,-12.75856 c 7.1134,-7.0172 13.02112,-12.78944 13.12826,-12.82719 0.10713,-0.0378 0.77575,0.52118 1.48581,1.24208 l 1.29102,1.31073 -3.37052,3.57463 c -1.85379,1.96605 -7.44553,7.56009 -12.4261,12.43121 l -9.05558,8.85658 -1.506264,5.17138 c -0.82844,2.84426 -1.50626,5.38844 -1.50626,5.65374 0,0.26529 0.44649,0.91568 0.99219,1.44531 l 0.99219,0.96296 4.890244,-1.43843 c 2.68963,-0.79113 5.00418,-1.43843 5.14345,-1.43843 0.13927,0 5.95299,-5.73401 12.91937,-12.74226 l 12.66616,-12.74226 1.66291,1.64813 1.66291,1.64813 -11.9319,11.8435 c -6.56254,6.51392 -12.47902,12.33791 -13.14773,12.94218 -0.83894,0.75811 -1.74113,1.25732 -2.91041,1.61046 -4.80683,1.45171 -12.826514,3.78623 -14.944454,4.35032 -2.076797,0.55313 -2.51019,0.59421 -3.201548,0.30352 z m 14.378602,-13.67043 c -0.18137,-1.53133 -0.33578,-1.68977 -1.87356,-1.9224 -0.59439,-0.0899 -1.2306,-0.257 -1.41381,-0.3713 -0.22808,-0.14228 3.59769,-4.15391 12.13379,-12.72328 l 12.46689,-12.51549 2.10201,2.08153 2.10202,2.08153 -12.43517,12.36927 c -6.83933,6.8031 -12.54425,12.36927 -12.67759,12.36927 -0.13334,0 -0.3154,-0.61611 -0.40458,-1.36913 z m 26.41722,-27.99688 -7.92601,-7.92931 1.05121,-1.08596 c 0.57817,-0.59728 1.35696,-1.30677 1.73063,-1.57666 l 0.67941,-0.49071 7.85642,7.85971 7.85642,7.8597 -1.66103,1.64627 -1.66104,1.64628 z m 5.69122,-5.95045 -7.53173,-7.5352 1.05117,-1.0973 c 1.77257,-1.85034 3.18943,-2.61771 4.83331,-2.61771 0.80707,0 1.84957,0.19931 2.39412,0.45771 1.25439,0.59525 9.57182,8.91269 10.16707,10.16709 0.57626,1.21438 0.5899,3.43337 0.0278,4.52039 -0.42698,0.82569 -2.93841,3.64023 -3.2482,3.64023 -0.089,0 -3.55107,-3.39084 -7.69351,-7.53521 z"
       id="path2"
       inkscape:export-filename="edit.png"
       inkscape:export-xdpi="34.450085"
       inkscape:export-ydpi="34.450085" /></g></svg>
